<?xml version="1.0" encoding="UTF-8"?>
<svg version="1.1" xmlns="http://www.w3.org/2000/svg" width="128" height="128">
<path d="M0 0 C12.30556998 9.86602513 21.7078008 24.03879363 24.38525391 39.78369141 C24.68076563 43.53799346 24.71935999 47.26898647 24.69775391 51.03369141 C24.69211426 52.05567627 24.68647461 53.07766113 24.68066406 54.13061523 C24.37715386 72.98280612 16.79664343 87.77830242 3.38525391 100.90869141 C-11.77172546 113.81437505 -30.28159591 117.13974892 -49.61474609 115.78369141 C-63.69463838 114.01973199 -75.84679109 106.80735204 -85.61474609 96.78369141 C-86.32244141 96.10822266 -87.03013672 95.43275391 -87.75927734 94.73681641 C-99.24776738 83.05062769 -104.15889467 66.02002465 -104.03686523 49.94506836 C-103.36343123 31.49297664 -95.73238557 16.44202978 -82.61474609 3.78369141 C-60.09116253 -16.85652083 -24.45495617 -18.42071237 0 0 Z " fill="#4BAD4F" transform="translate(103.61474609375,12.21630859375)"/>
<path d="M0 0 C16.17 0 32.34 0 49 0 C49 25.74 49 51.48 49 78 C32.83 78 16.66 78 0 78 C0 52.26 0 26.52 0 0 Z " fill="#010301" transform="translate(46,24)"/>
<path d="M0 0 C1.43352212 0.00015908 2.86704998 0.00585132 4.30053711 0.01586914 C5.43041298 0.01799156 5.43041298 0.01799156 6.58311462 0.02015686 C8.99807646 0.02577163 11.41294687 0.03832656 13.82788086 0.05102539 C15.46134307 0.05603849 17.09480672 0.06060173 18.72827148 0.06469727 C22.74070516 0.07489664 26.75294021 0.09446894 30.76538086 0.11352539 C30.76538086 7.70352539 30.76538086 15.29352539 30.76538086 23.11352539 C25.94151019 23.13643559 21.11782697 23.15636225 16.29394531 23.16845703 C14.65168621 23.17349713 13.00943163 23.18032917 11.3671875 23.18896484 C9.01162607 23.20104465 6.65612377 23.20675678 4.30053711 23.21118164 C3.5619899 23.21634293 2.82344269 23.22150421 2.06251526 23.2268219 C0.29639998 23.22701789 -1.4695906 23.17547258 -3.23461914 23.11352539 C-4.85662429 21.49152024 -4.36452664 19.69329509 -4.36743164 17.45727539 C-4.3687207 16.51754883 -4.37000977 15.57782227 -4.37133789 14.60961914 C-4.3674707 13.6209082 -4.36360352 12.63219727 -4.35961914 11.61352539 C-4.36348633 10.62481445 -4.36735352 9.63610352 -4.37133789 8.61743164 C-4.37004883 7.67770508 -4.36875977 6.73797852 -4.36743164 5.76977539 C-4.36630371 4.9015918 -4.36517578 4.0334082 -4.36401367 3.13891602 C-4.14631958 -0.26861259 -3.50959331 0.12317616 0 0 Z " fill="#4BAE4F" transform="translate(56.234619140625,31.886474609375)"/>
<path d="M0 0 C3.3 0 6.6 0 10 0 C10 5.94 10 11.88 10 18 C6.7 18 3.4 18 0 18 C0 12.06 0 6.12 0 0 Z " fill="#040B05" transform="translate(33,84)"/>
<path d="M0 0 C3.3 0 6.6 0 10 0 C10 5.28 10 10.56 10 16 C6.7 16 3.4 16 0 16 C0 10.72 0 5.44 0 0 Z " fill="#040A04" transform="translate(33,45)"/>
<path d="M0 0 C2.97 0 5.94 0 9 0 C9 5.61 9 11.22 9 17 C6.03 17 3.06 17 0 17 C0 11.39 0 5.78 0 0 Z " fill="#000000" transform="translate(33,24)"/>
<path d="M0 0 C11.22 0 22.44 0 34 0 C34 1.32 34 2.64 34 4 C22.78 4 11.56 4 0 4 C0 2.68 0 1.36 0 0 Z " fill="#49A94D" transform="translate(53,61)"/>
<path d="M0 0 C2.97 0 5.94 0 9 0 C9 4.95 9 9.9 9 15 C6.03 15 3.06 15 0 15 C0 10.05 0 5.1 0 0 Z " fill="#000000" transform="translate(33,65)"/>
<path d="M0 0 C9.24 0 18.48 0 28 0 C27.67 1.32 27.34 2.64 27 4 C18.09 4 9.18 4 0 4 C0 2.68 0 1.36 0 0 Z " fill="#449E48" transform="translate(53,71)"/>
</svg>
